<svg width="88" height="88" viewBox="0 0 88 88" fill="none" xmlns="http://www.w3.org/2000/svg">
<g id="Group 18">
<g id="Bitmap">
<circle id="Mask" cx="44" cy="44" r="44" fill="#36536B"/>
<mask id="mask0_0_3369" style="mask-type:luminance" maskUnits="userSpaceOnUse" x="0" y="0" width="88" height="88">
<circle id="Mask_2" cx="44" cy="44" r="44" fill="white"/>
</mask>
<g mask="url(#mask0_0_3369)">
</g>
</g>
<path id="Combined Shape" fill-rule="evenodd" clip-rule="evenodd" d="M34.3457 42.1414C33.8208 42.6471 33.1104 42.962 32.3255 42.962C30.7162 42.962 29.4069 41.6527 29.4069 40.0434C29.4069 38.4341 30.7162 37.1248 32.3255 37.1248C33.9348 37.1248 35.2441 38.4341 35.2441 40.0434C35.2441 40.135 35.2319 40.2232 35.2198 40.3115C35.2158 40.34 35.2119 40.3685 35.2084 40.3971L38.0883 41.8369C38.6132 41.3312 39.3236 41.0163 40.1085 41.0163C40.5577 41.0163 40.9783 41.1267 41.3588 41.3089L45.2655 37.4022C45.0834 37.0217 44.9729 36.6011 44.9729 36.1519C44.9729 34.5426 46.2822 33.2333 47.8915 33.2333C48.4889 33.2333 49.044 33.4149 49.5072 33.7243L52.9016 31.1791C52.8154 30.9042 52.7559 30.6176 52.7559 30.3146C52.7559 28.7053 54.0652 27.396 55.6745 27.396C57.2838 27.396 58.5932 28.7053 58.5932 30.3146C58.5932 31.9239 57.2838 33.2333 55.6745 33.2333C55.0771 33.2333 54.522 33.0516 54.0589 32.7423L50.6645 35.2875C50.7506 35.5623 50.8102 35.8489 50.8102 36.1519C50.8102 37.7612 49.5008 39.0705 47.8915 39.0705C47.4423 39.0705 47.0218 38.9601 46.6412 38.7779L42.7345 42.6846C42.9167 43.0651 43.0271 43.4857 43.0271 43.9349C43.0271 45.5442 41.7178 46.8535 40.1085 46.8535C38.4992 46.8535 37.1899 45.5442 37.1899 43.9349C37.1899 43.8433 37.202 43.7551 37.2142 43.6668C37.2181 43.6383 37.2221 43.6098 37.2256 43.5812L34.3457 42.1414ZM58.5932 58.6578H59.6309C60.1685 58.6578 60.6038 59.093 60.6038 59.6307C60.6038 60.1683 60.1685 60.6035 59.6309 60.6035H28.3691C27.8315 60.6035 27.3962 60.1683 27.3962 59.6307C27.3962 59.093 27.8315 58.6578 28.3691 58.6578H29.4069V47.8264C29.4069 47.2888 29.8421 46.8535 30.3797 46.8535H34.2712C34.8089 46.8535 35.2441 47.2888 35.2441 47.8264V58.6578H37.1899V51.7179C37.1899 51.1803 37.6251 50.7451 38.1627 50.7451H42.0543C42.5919 50.7451 43.0271 51.1803 43.0271 51.7179V58.6578H44.9729V43.9349C44.9729 43.3973 45.4082 42.962 45.9458 42.962H49.8373C50.3749 42.962 50.8102 43.3973 50.8102 43.9349V58.6578H52.7559V38.0976C52.7559 37.56 53.1912 37.1248 53.7288 37.1248H57.6203C58.1579 37.1248 58.5932 37.56 58.5932 38.0976V58.6578Z" fill="white"/>
</g>
</svg>
